<svg width="74" height="76" viewBox="0 0 74 76" fill="none" xmlns="http://www.w3.org/2000/svg">
<mask id="mask0_90_1007" style="mask-type:luminance" maskUnits="userSpaceOnUse" x="0" y="64" width="74" height="12">
<path d="M0.929199 64.292H73.7187V75.9788H0.929199V64.292Z" fill="white"/>
</mask>
<g mask="url(#mask0_90_1007)">
<path d="M73.5713 73.9173V75.9282H0.929199V73.9173C0.929199 72.0143 2.47365 70.472 4.37892 70.472C26.5931 62.7167 48.5058 62.7981 70.1238 70.472C72.0268 70.472 73.5713 72.0143 73.5713 73.9173Z" fill="#2E1E72"/>
</g>
<path d="M69.9292 66.6074V70.021H3.9292V66.6074C3.9292 62.1327 7.58445 58.5064 12.0944 58.5064C28.2747 50.3111 44.7908 49.4188 61.764 58.5064C66.2717 58.5064 69.9292 62.1327 69.9292 66.6074Z" fill="#8577B7"/>
<path d="M55.7958 8.39604C51.3073 3.26082 44.7447 0.0209961 37.4303 0.0209961C30.6628 0.0209961 24.5403 2.79578 20.1063 7.27423C15.6702 11.7593 12.9292 17.9502 12.9292 24.7869V59.021H61.9292V24.7869C61.9292 18.5034 59.6131 12.7643 55.7958 8.39604Z" fill="#9D71FA"/>
<path d="M41.9292 28.021V34.9888C41.9292 36.6638 40.6478 38.021 39.069 38.021H35.7894C34.2085 38.021 32.9292 36.6638 32.9292 34.9888V28.021C34.1785 28.7042 35.7381 29.1104 37.4303 29.1104C39.1224 29.1104 40.6799 28.7042 41.9292 28.021Z" fill="#F8F8F8"/>
<path d="M42.9033 26.5417C42.9181 26.6998 42.9292 26.8579 42.9292 27.0193C42.9292 29.7808 40.4704 32.021 37.431 32.021C34.3917 32.021 31.9292 29.7808 31.9292 27.0193C31.9292 26.8612 31.9403 26.7031 31.9551 26.545C32.2176 24.0055 34.5655 22.021 37.431 22.021C40.2892 22.021 42.6371 24.0022 42.9033 26.5417Z" fill="#2E1E72"/>
<path d="M49.9303 13.021C51.5869 13.021 52.9292 14.3643 52.9292 16.0221C52.9292 17.6799 51.5869 19.021 49.9303 19.021C48.2737 19.021 46.9292 17.6799 46.9292 16.0221C46.9292 14.3643 48.2737 13.021 49.9303 13.021Z" fill="#2E1E72"/>
<path d="M23.9303 13.021C25.5857 13.021 26.9292 14.3643 26.9292 16.0221C26.9292 17.6799 25.5857 19.021 23.9303 19.021C22.2727 19.021 20.9292 17.6799 20.9292 16.0221C20.9292 14.3643 22.2727 13.021 23.9303 13.021Z" fill="#2E1E72"/>
<path d="M20.1287 7.021C15.6787 11.528 12.9292 17.7492 12.9292 24.6194V59.021H55.9292C25.6277 52.2483 18.7932 31.9834 20.1287 7.021Z" fill="#2E1E72"/>
</svg>
