<svg width="104" height="131" viewBox="0 0 104 131" fill="none" xmlns="http://www.w3.org/2000/svg">
<path d="M42.3958 129.122C41.1098 129.122 39.8048 128.947 38.5093 128.58L11.0469 120.798C3.47173 118.65 -0.945539 110.742 1.20032 103.168L19.014 40.2955C20.0546 36.6259 22.461 33.5783 25.7921 31.7197C29.1231 29.8592 32.9773 29.4084 36.6469 30.447L64.1074 38.2296C71.6788 40.3773 76.0942 48.2873 73.9464 55.8625L69.8487 70.3261C69.6813 70.914 69.0688 71.2564 68.4828 71.089C67.895 70.9235 67.5526 70.3109 67.72 69.7231L71.8177 55.2595C73.6325 48.858 69.902 42.1732 63.5044 40.3602L36.0439 32.5777C32.9411 31.6988 29.6862 32.0793 26.8707 33.6525C24.0552 35.2239 22.0235 37.7977 21.1446 40.8986L3.33096 103.773C1.51801 110.171 5.25043 116.854 11.6519 118.669L39.1124 126.453C45.5119 128.266 52.193 124.534 54.0059 118.134L58.1302 103.579C58.2976 102.99 58.9083 102.651 59.4961 102.816C60.0839 102.982 60.4245 103.593 60.2589 104.182L56.1327 118.737C54.3559 125.011 48.6184 129.122 42.3958 129.122Z" fill="#2E1E72"/>
<mask id="mask0_90_1300" style="mask-type:luminance" maskUnits="userSpaceOnUse" x="16" y="107" width="51" height="24">
<path d="M16.7715 107.627H66.4458V131H16.7715V107.627Z" fill="white"/>
</mask>
<g mask="url(#mask0_90_1300)">
<path d="M49.0127 130.996C47.7286 130.996 46.4236 130.821 45.1262 130.454L17.6657 122.672C17.0778 122.506 16.7354 121.894 16.9028 121.306C17.0702 120.718 17.6809 120.376 18.2687 120.543L45.7292 128.325C52.1287 130.14 58.8098 126.408 60.6228 120.008L63.8834 108.497C64.0508 107.909 64.6634 107.567 65.2493 107.734C65.8371 107.9 66.1795 108.512 66.0121 109.1L62.7515 120.611C60.9728 126.889 55.2372 130.996 49.0127 130.996Z" fill="#2E1E72"/>
</g>
<path d="M74.5405 76.0562C74.4396 76.0562 74.3388 76.0429 74.2361 76.0143C73.6483 75.8488 73.3077 75.2363 73.4732 74.6485L78.4365 57.1354C80.2494 50.7339 76.5208 44.0472 70.1213 42.2361L42.6608 34.4517C42.073 34.2862 41.7305 33.6755 41.8979 33.0877C42.0654 32.498 42.676 32.1574 43.2638 32.3248L70.7243 40.1074C78.2976 42.2532 82.7111 50.1632 80.5652 57.7403L75.602 75.2534C75.465 75.7385 75.0218 76.0562 74.5405 76.0562Z" fill="#2E1E72"/>
<path d="M34.8914 32.1934C34.2941 32.1934 33.8033 31.7197 33.7862 31.1185C33.7196 28.7273 32.8312 26.4539 31.8933 24.0475C31.0372 21.8579 30.1507 19.5903 29.9015 17.1609C29.4317 12.6105 31.3359 7.98208 34.8705 5.08098C38.407 2.17989 43.3208 1.2154 47.6905 2.56607C48.3316 2.76582 48.9746 3.01122 49.6518 3.3175C50.2092 3.57051 50.4565 4.22492 50.2035 4.78231C49.9524 5.3397 49.298 5.58511 48.7406 5.334C48.1451 5.06577 47.5858 4.8508 47.0342 4.67768C43.4235 3.561 39.1984 4.39043 36.2725 6.7893C33.3505 9.18817 31.7126 13.1698 32.1007 16.9327C32.3213 19.0633 33.1146 21.0931 33.9536 23.2428C34.9219 25.7196 35.9206 28.2783 35.9986 31.0557C36.0176 31.6664 35.5344 32.1743 34.9238 32.1934C34.9123 32.1934 34.9009 32.1934 34.8914 32.1934Z" fill="#2E1E72"/>
<mask id="mask1_90_1300" style="mask-type:luminance" maskUnits="userSpaceOnUse" x="61" y="0" width="43" height="42">
<path d="M61.0889 0H103.342V41.8823H61.0889V0Z" fill="white"/>
</mask>
<g mask="url(#mask1_90_1300)">
<path d="M68.9643 41.8519C68.3669 41.8519 67.8761 41.3763 67.859 40.777C67.7924 38.3839 66.904 36.1125 65.9661 33.706C65.1082 31.5145 64.2236 29.2469 63.9725 26.8195C63.5045 22.2671 65.4088 17.6387 68.9433 14.7395C72.2192 12.0477 76.8324 11.0033 80.9795 12.0077C81.2364 12.0667 81.5027 12.1428 81.7633 12.2227C83.5667 12.7801 85.2218 13.6951 86.8255 14.5816C89.0779 15.8276 91.2066 17.0071 93.5503 17.1231C96.6645 17.281 99.849 15.0648 100.962 11.9887C101.067 11.6957 100.975 11.4408 100.911 11.3153C100.791 11.0794 100.576 10.9043 100.321 10.8321L70.1627 2.28477C69.6891 2.15161 69.1925 2.41794 69.0308 2.89352C68.1006 5.66526 65.7854 8.0394 62.9909 9.08569C62.4183 9.29876 61.781 9.0096 61.5679 8.43699C61.3529 7.86438 61.644 7.22709 62.2147 7.01212C64.4005 6.19411 66.2096 4.34312 66.9344 2.18395C67.4804 0.589772 69.1621 -0.300531 70.7677 0.156035L100.926 8.70332C101.767 8.94111 102.48 9.52514 102.881 10.3032C103.275 11.0737 103.334 11.9373 103.045 12.7363C101.593 16.756 97.5586 19.5277 93.4419 19.3337C90.5845 19.1891 88.1286 17.8308 85.7545 16.5182C84.1812 15.6469 82.6974 14.8251 81.1127 14.3362C80.9015 14.2715 80.6828 14.2087 80.4697 14.1574C76.9732 13.3089 73.1 14.1878 70.3492 16.4459C67.4272 18.8448 65.7892 22.8264 66.1754 26.5893C66.3961 28.7199 67.1894 30.7497 68.0302 32.8994C68.9966 35.3743 69.9972 37.9349 70.0733 40.7124C70.0924 41.3211 69.6092 41.8309 68.9985 41.8481C68.9852 41.8519 68.9757 41.8519 68.9643 41.8519Z" fill="#2E1E72"/>
</g>
<path d="M81.4359 14.3876C81.337 14.3876 81.2381 14.3743 81.1392 14.3477L44.8289 4.26711C44.2411 4.10351 43.8968 3.49285 44.0585 2.90312C44.2221 2.3153 44.8327 1.97097 45.4205 2.13267L81.7289 12.2152C82.3186 12.3769 82.663 12.9875 82.4994 13.5772C82.3662 14.068 81.921 14.3876 81.4359 14.3876Z" fill="#2E1E72"/>
<path d="M58.73 14.9469C58.631 14.9469 58.5283 14.9336 58.4275 14.9051L41.3424 10.0617C40.7546 9.89615 40.4122 9.2855 40.5796 8.69577C40.747 8.10794 41.3577 7.76742 41.9455 7.93292L59.0305 12.7763C59.6184 12.9418 59.9608 13.5544 59.7934 14.1422C59.6564 14.6292 59.2132 14.9469 58.73 14.9469Z" fill="#2E1E72"/>
<path d="M46.9962 18.4168C46.8973 18.4168 46.7946 18.4035 46.6937 18.375L38.1503 15.9533C37.5624 15.7878 37.2219 15.1771 37.3893 14.5874C37.5548 13.9995 38.1674 13.659 38.7533 13.8245L47.2968 16.2462C47.8846 16.4117 48.227 17.0243 48.0596 17.6121C47.9227 18.0991 47.4794 18.4168 46.9962 18.4168Z" fill="#2E1E72"/>
<path d="M55.2446 27.2455C55.1457 27.2455 55.043 27.2322 54.9421 27.2037L42.6453 23.7186C42.0556 23.5531 41.7151 22.9405 41.8825 22.3527C42.0499 21.7649 42.6605 21.4224 43.2484 21.5898L55.5452 25.075C56.133 25.2405 56.4754 25.853 56.308 26.4408C56.1711 26.9279 55.7278 27.2455 55.2446 27.2455Z" fill="#2E1E72"/>
<path d="M80.011 121.536C78.7954 121.536 77.6312 121.108 76.6971 120.309L42.2645 90.8546C40.1243 89.0226 39.8732 85.7924 41.7033 83.6504L57.2665 65.4506C58.153 64.4119 59.3914 63.7822 60.7516 63.6757C62.1118 63.5748 63.432 64.001 64.4688 64.8875L98.9014 94.3416C101.042 96.1736 101.295 99.4057 99.4626 101.548L83.8975 119.748C83.011 120.784 81.7726 121.414 80.4124 121.521C80.2812 121.53 80.1461 121.536 80.011 121.536ZM61.1568 65.8729C61.0807 65.8729 61.0046 65.8748 60.9266 65.8805C60.1542 65.9414 59.4542 66.2971 58.95 66.8849L43.385 85.0867C42.3482 86.2985 42.4909 88.1323 43.7046 89.171L78.1372 118.625C78.725 119.127 79.4727 119.371 80.245 119.312C81.0155 119.251 81.7174 118.895 82.2216 118.308L97.7847 100.106C98.8234 98.894 98.6807 97.0601 97.4651 96.0214L63.0344 66.5672C62.5055 66.1145 61.8454 65.8729 61.1568 65.8729Z" fill="#2E1E72"/>
<path d="M61.8513 82.1264L57.0612 78.0306C56.909 77.9012 56.8919 77.673 57.0213 77.5208L61.117 72.7306C61.2464 72.5785 61.4747 72.5613 61.6269 72.6907L66.4151 76.7865C66.5673 76.9158 66.5863 77.1441 66.4569 77.2963L62.3612 82.0864C62.2318 82.2386 62.0035 82.2576 61.8513 82.1264Z" fill="#2E1E72"/>
<path d="M51.2684 75.2781C51.1676 75.2781 51.0668 75.2648 50.964 75.2362L24.976 67.8703C23.2258 67.3757 21.7705 66.2267 20.884 64.6382C19.9956 63.0517 19.7806 61.2102 20.2771 59.46L25.0844 42.4929C26.1079 38.8803 29.8821 36.7725 33.4985 37.7979L63.3522 46.2577C65.1023 46.7542 66.5576 47.9013 67.4441 49.4898C68.3325 51.0782 68.5494 52.9178 68.051 54.6699L64.7942 66.1639C64.6287 66.7536 64.0161 67.0942 63.4302 66.9267C62.8423 66.7612 62.4999 66.1506 62.6673 65.5609L65.9242 54.0668C66.259 52.8836 66.1125 51.6413 65.5132 50.5703C64.9121 49.4993 63.9305 48.7231 62.7472 48.3883L32.8936 39.9285C30.4528 39.2361 27.9037 40.6571 27.2131 43.0959L22.4059 60.063C22.0711 61.2444 22.2156 62.4867 22.8149 63.5577C23.416 64.6306 24.3976 65.4068 25.5809 65.7416L51.569 73.1056C52.1568 73.2711 52.4992 73.8837 52.3318 74.4715C52.193 74.9604 51.7497 75.2781 51.2684 75.2781Z" fill="#2E1E72"/>
<path d="M59.0003 92.3518C58.7454 92.3518 58.4904 92.2662 58.2812 92.0874L50.8601 85.7392C50.3959 85.3436 50.3408 84.6435 50.7383 84.1793C51.1378 83.7151 51.8341 83.6619 52.2983 84.0595L59.7194 90.4057C60.1816 90.8033 60.2387 91.5015 59.8411 91.9657C59.6223 92.2206 59.3123 92.3518 59.0003 92.3518Z" fill="#2E1E72"/>
<path d="M70.2718 101.993C70.0168 101.993 69.7619 101.907 69.5527 101.729L62.1316 95.3804C61.6674 94.9847 61.6122 94.2846 62.0098 93.8204C62.4055 93.3562 63.1056 93.303 63.5698 93.7006L70.9889 100.047C71.4531 100.444 71.5083 101.143 71.1126 101.607C70.8919 101.862 70.5837 101.993 70.2718 101.993Z" fill="#2E1E72"/>
<path d="M81.1663 111.314C80.9114 111.314 80.6565 111.229 80.4472 111.05L73.0261 104.702C72.5619 104.306 72.5068 103.606 72.9044 103.142C73.302 102.678 74.0001 102.624 74.4643 103.022L81.8835 109.368C82.3477 109.766 82.4028 110.464 82.0071 110.928C81.7884 111.183 81.4783 111.314 81.1663 111.314Z" fill="#2E1E72"/>
<path d="M40.9586 61.7143C40.6656 61.7143 40.3688 61.6744 40.0778 61.5907C39.2521 61.3567 38.5692 60.8164 38.1507 60.0669L35.4417 55.2178C35.145 54.6851 35.3352 54.0098 35.8698 53.713C36.4024 53.4143 37.0777 53.6046 37.3745 54.1391L40.0816 58.9902C40.2109 59.2222 40.424 59.3915 40.6808 59.4619C40.9376 59.5361 41.2059 59.5038 41.4399 59.3725L53.8794 52.4251C54.4139 52.1284 55.0854 52.3186 55.3822 52.8532C55.6809 53.3858 55.4906 54.0611 54.9561 54.3579L42.5166 61.3053C42.0353 61.5774 41.5007 61.7143 40.9586 61.7143Z" fill="#2E1E72"/>
<path d="M26.9643 84.8433C26.8635 84.8433 26.7627 84.83 26.6599 84.8015L19.5661 82.7907C18.9782 82.6252 18.6358 82.0126 18.8032 81.4248C18.9706 80.8369 19.5813 80.4964 20.1691 80.6619L27.263 82.6727C27.8508 82.8382 28.1932 83.4508 28.0258 84.0386C27.8889 84.5256 27.4456 84.8433 26.9643 84.8433Z" fill="#2E1E72"/>
<path d="M24.4653 93.6641C24.3645 93.6641 24.2637 93.6508 24.1609 93.6223L17.067 91.6115C16.4792 91.446 16.1368 90.8334 16.3042 90.2456C16.4716 89.6577 17.0823 89.3172 17.6701 89.4827L24.764 91.4935C25.3518 91.659 25.6942 92.2716 25.5268 92.8594C25.3898 93.3464 24.9466 93.6641 24.4653 93.6641Z" fill="#2E1E72"/>
<path d="M21.9634 102.488C21.8645 102.488 21.7637 102.474 21.6609 102.446L14.567 100.435C13.9792 100.269 13.6368 99.6568 13.8042 99.069C13.9716 98.4812 14.5804 98.1387 15.1701 98.3062L22.264 100.317C22.8518 100.482 23.1942 101.095 23.0268 101.683C22.8898 102.168 22.4466 102.488 21.9634 102.488Z" fill="#2E1E72"/>
<path d="M19.4646 111.309C19.3657 111.309 19.263 111.295 19.1622 111.267L12.0664 109.256C11.4785 109.09 11.138 108.48 11.3035 107.89C11.4709 107.302 12.0816 106.962 12.6694 107.127L19.7652 109.138C20.353 109.305 20.6955 109.916 20.528 110.504C20.3911 110.991 19.9478 111.309 19.4646 111.309Z" fill="#2E1E72"/>
<path d="M38.0379 87.982C37.9371 87.982 37.8362 87.9686 37.7354 87.9401L32.3346 86.4106C31.7468 86.2432 31.4044 85.6325 31.5718 85.0447C31.7392 84.455 32.3498 84.1145 32.9377 84.2819L38.3366 85.8114C38.9263 85.9769 39.2668 86.5894 39.0994 87.1773C38.9643 87.6643 38.5192 87.982 38.0379 87.982Z" fill="#2E1E72"/>
<path d="M37.2348 97.2842C37.134 97.2842 37.0332 97.2709 36.9305 97.2424L29.8366 95.2316C29.2487 95.0661 28.9063 94.4535 29.0737 93.8657C29.2411 93.2779 29.8518 92.9373 30.4396 93.1028L37.5335 95.1136C38.1213 95.2791 38.4638 95.8917 38.2963 96.4795C38.1613 96.9665 37.7161 97.2842 37.2348 97.2842Z" fill="#2E1E72"/>
<path d="M34.735 106.106C34.6361 106.106 34.5334 106.092 34.4326 106.064L27.3387 104.053C26.7489 103.888 26.4084 103.275 26.5758 102.687C26.7432 102.099 27.352 101.757 27.9398 101.924L35.0356 103.935C35.6234 104.101 35.9658 104.713 35.7984 105.301C35.6615 105.788 35.2182 106.106 34.735 106.106Z" fill="#2E1E72"/>
<path d="M32.236 114.927C32.1371 114.927 32.0344 114.913 31.9335 114.885L24.8378 112.874C24.2499 112.709 23.9094 112.098 24.0768 111.508C24.2423 110.92 24.853 110.58 25.4408 110.745L32.5366 112.756C33.1244 112.922 33.4668 113.534 33.2994 114.122C33.1625 114.609 32.7192 114.927 32.236 114.927Z" fill="#2E1E72"/>
<path d="M48.1771 100.385C48.0762 100.385 47.9754 100.372 47.8746 100.344L42.0172 98.6847C41.4294 98.5192 41.087 97.9066 41.2544 97.3188C41.4218 96.731 42.0325 96.3905 42.6203 96.556L48.4757 98.2148C49.0655 98.3803 49.406 98.9929 49.2386 99.5807C49.1035 100.068 48.6584 100.385 48.1771 100.385Z" fill="#2E1E72"/>
<path d="M46.9175 109.559C46.8166 109.559 46.7158 109.545 46.6131 109.517L39.5192 107.506C38.9314 107.34 38.5889 106.728 38.7563 106.14C38.9238 105.552 39.5344 105.212 40.1222 105.377L47.2161 107.388C47.8039 107.554 48.1464 108.166 47.979 108.754C47.842 109.241 47.3987 109.559 46.9175 109.559Z" fill="#2E1E72"/>
<path d="M44.4184 118.38C44.3176 118.38 44.2168 118.367 44.1141 118.338L37.0202 116.327C36.4323 116.162 36.0899 115.549 36.2573 114.961C36.4228 114.374 37.0354 114.033 37.6232 114.199L44.7171 116.209C45.3049 116.375 45.6473 116.987 45.4799 117.575C45.343 118.062 44.8997 118.38 44.4184 118.38Z" fill="#2E1E72"/>
</svg>
