<svg width="182" height="200" viewBox="0 0 182 200" fill="none" xmlns="http://www.w3.org/2000/svg">
<path d="M91.985 74.8357C96.6911 81.5789 104.277 72.0596 106.642 75.4385C108.418 78.0001 103.228 81.1993 99.8294 81.5673C96.9982 81.9498 98.0907 85.8068 100.56 85.4359C102.608 85.1838 104.283 84.4535 105.831 83.5291L106.88 85.0331C108.247 86.9891 111.25 85.0012 109.847 82.9611L108.729 81.3587C111.818 78.3102 111.971 74.9893 110.244 72.5204C105.663 65.9511 98.027 75.453 95.645 72.0567C93.8657 69.5067 97.9342 66.661 101.226 66.1279C104.002 65.7164 103.324 62.3317 100.948 62.4245C99.3483 62.4129 97.8299 62.9461 96.4129 63.6908L95.3552 62.1724C93.9642 60.1816 91.0114 62.2535 92.3878 64.2443L93.5093 65.8526C90.2782 68.9271 90.2551 72.3552 91.985 74.8357Z" fill="#2E1E72"/>
<mask id="mask0_90_1177" style="mask-type:luminance" maskUnits="userSpaceOnUse" x="0" y="177" width="177" height="23">
<path d="M0.165527 177.893H176.366V200H0.165527V177.893Z" fill="white"/>
</mask>
<g mask="url(#mask0_90_1177)">
<path d="M170.857 188.608H169.081V186.058C169.081 181.912 165.723 178.539 161.593 178.539H14.5417C10.4152 178.539 7.05669 181.912 7.05669 186.058V188.608H5.28034C2.52164 188.608 0.272949 190.857 0.272949 193.619V197.563C0.272949 198.823 1.29587 199.849 2.55931 199.849C3.81985 199.849 4.84567 198.823 4.84567 197.563V193.619C4.84567 193.378 5.03982 193.181 5.28034 193.181C177.673 193.387 171.292 192.746 171.292 193.619V197.563C171.292 198.823 172.315 199.849 173.576 199.849C174.839 199.849 175.862 198.823 175.862 197.563V193.619C175.862 190.857 173.616 188.608 170.857 188.608ZM11.6265 186.058C11.6265 184.436 12.9334 183.111 14.5417 183.111H161.593C163.201 183.111 164.508 184.436 164.508 186.058V188.608H11.6265V186.058Z" fill="#2E1E72"/>
</g>
<path d="M32.6353 113.886V171.697C32.6353 172.961 33.6582 173.984 34.9187 173.984C36.1822 173.984 37.2051 172.961 37.2051 171.697V113.886C37.2051 112.626 36.1822 111.6 34.9187 111.6C33.6582 111.6 32.6353 112.626 32.6353 113.886Z" fill="#2E1E72"/>
<path d="M19.2505 113.886V171.697C19.2505 172.961 20.2763 173.984 21.5368 173.984C22.7974 173.984 23.8232 172.961 23.8232 171.697V113.886C23.8232 112.626 22.7974 111.6 21.5368 111.6C20.2763 111.6 19.2505 112.626 19.2505 113.886Z" fill="#2E1E72"/>
<path d="M72.3237 113.886V171.697C72.3237 172.961 73.3467 173.984 74.6101 173.984C75.8706 173.984 76.8936 172.961 76.8936 171.697V113.886C76.8936 112.626 75.8706 111.6 74.6101 111.6C73.3467 111.6 72.3237 112.626 72.3237 113.886Z" fill="#2E1E72"/>
<path d="M58.939 113.886V171.697C58.939 172.961 59.9648 173.984 61.2253 173.984C62.4888 173.984 63.5117 172.961 63.5117 171.697V113.886C63.5117 112.626 62.4888 111.6 61.2253 111.6C59.9648 111.6 58.939 112.626 58.939 113.886Z" fill="#2E1E72"/>
<path d="M167.502 96.3056L146.577 83.251C145.507 82.5845 144.096 82.9091 143.43 83.9842C142.76 85.0534 143.088 86.4647 144.16 87.1341L165.079 100.186C166.151 100.855 165.679 102.472 164.436 102.472H11.6988C10.4615 102.472 9.98334 100.855 11.0526 100.189L45.9682 78.4001C47.0403 77.7307 47.3649 76.3195 46.6984 75.2502C46.0319 74.1751 44.6207 73.8593 43.5485 74.52L8.63007 96.3085C3.69513 99.3975 5.86847 107.045 11.6988 107.045H164.436C170.246 107.045 172.46 99.412 167.502 96.3056Z" fill="#2E1E72"/>
<path d="M42.0532 92.8513C42.0532 94.1147 43.0761 95.1406 44.3367 95.1406H130.43C131.691 95.1406 132.717 94.1147 132.717 92.8513C132.717 91.5908 131.691 90.5649 130.43 90.5649H44.3367C43.0761 90.5649 42.0532 91.5908 42.0532 92.8513Z" fill="#2E1E72"/>
<path d="M112.009 113.886V171.697C112.009 172.961 113.035 173.984 114.295 173.984C115.559 173.984 116.582 172.961 116.582 171.697V113.886C116.582 112.626 115.559 111.6 114.295 111.6C113.035 111.6 112.009 112.626 112.009 113.886Z" fill="#2E1E72"/>
<path d="M98.627 113.886V171.697C98.627 172.961 99.6528 173.984 100.913 173.984C102.177 173.984 103.2 172.961 103.2 171.697V113.886C103.2 112.626 102.177 111.6 100.913 111.6C99.6528 111.6 98.627 112.626 98.627 113.886Z" fill="#2E1E72"/>
<path d="M151.697 113.886V171.697C151.697 172.961 152.723 173.984 153.984 173.984C155.247 173.984 156.27 172.961 156.27 171.697V113.886C156.27 112.626 155.247 111.6 153.984 111.6C152.723 111.6 151.697 112.626 151.697 113.886Z" fill="#2E1E72"/>
<path d="M138.318 113.886V171.697C138.318 172.961 139.341 173.984 140.601 173.984C141.865 173.984 142.888 172.961 142.888 171.697V113.886C142.888 112.626 141.865 111.6 140.601 111.6C139.341 111.6 138.318 112.626 138.318 113.886Z" fill="#2E1E72"/>
<path d="M118.882 21.2381C115.761 25.1385 112.142 30.0619 110.215 34.6375C109.725 35.8024 110.273 37.1412 111.435 37.6338C112.585 38.1148 113.936 37.5875 114.428 36.4109C116.156 32.3019 119.656 27.5901 122.452 24.0982C123.756 22.461 125.628 21.3627 127.59 21.0816C135.965 19.8877 152.52 20.0413 152.694 20.0442C153.894 20.0413 154.989 19.0416 155.003 17.7839C155.018 16.5205 154.004 15.4831 152.74 15.4715C152.056 15.4715 135.663 15.3121 126.944 16.5553C123.797 17.0044 120.934 18.6706 118.882 21.2381Z" fill="#2E1E72"/>
<path d="M162.002 35.8458C161.008 35.0663 159.57 35.243 158.794 36.2399C155.934 39.8969 151.202 44.6869 144.963 46.7038C137.396 48.8656 131.169 51.3026 125.321 56.197C122.884 58.3616 119.016 60.5292 117.578 57.84C117.086 56.9127 117.106 55.771 117.625 54.8553C120.16 50.4014 126.634 44.3566 133.609 38.0278C134.545 37.1788 134.615 35.7328 133.768 34.7968C132.925 33.8666 131.476 33.797 130.537 34.6403C123 41.4762 116.524 47.5471 113.652 52.5921C111 57.2576 113.843 63.6414 119.65 63.6414C122.415 63.6414 125.336 62.2939 128.303 59.6627C133.484 55.3276 139.21 53.105 146.293 51.0795C153.711 48.6801 159.141 43.2178 162.393 39.0565C163.172 38.0597 162.996 36.6224 162.002 35.8458Z" fill="#2E1E72"/>
<mask id="mask1_90_1177" style="mask-type:luminance" maskUnits="userSpaceOnUse" x="154" y="0" width="28" height="41">
<path d="M154.111 0H181.834V40.6532H154.111V0Z" fill="white"/>
</mask>
<g mask="url(#mask1_90_1177)">
<path d="M178.762 33.429L171.692 35.6255C170.698 35.9298 169.62 35.4169 169.243 34.4432L159.515 9.54534C159.112 8.51373 159.628 7.34592 160.669 6.95182L166.948 4.57852C168.127 4.13516 168.724 2.81377 168.278 1.63436C167.832 0.449165 166.51 -0.147781 165.331 0.301378L159.052 2.67467C155.629 3.96999 153.928 7.79797 155.258 11.2116L164.983 36.1065C166.224 39.2796 169.733 41.0096 173.048 39.9925L180.119 37.7988C181.324 37.425 181.996 36.1442 181.622 34.9358C181.252 33.7332 179.968 33.0581 178.762 33.429Z" fill="#2E1E72"/>
</g>
<path d="M113.119 43.3745C112.487 42.282 111.084 41.9053 109.998 42.5399L54.1081 74.804C51.8014 76.1051 51.0074 79 52.3317 81.3095L54.3689 84.8709C55.0006 85.9692 56.4002 86.343 57.4898 85.7171C58.5852 85.0912 58.9648 83.6915 58.3359 82.5962L56.3712 78.7769L112.281 46.4983C113.374 45.8666 113.75 44.4728 113.119 43.3745Z" fill="#2E1E72"/>
<path d="M128.037 84.8763C128.674 85.9774 130.074 86.3396 131.161 85.7137L153.462 72.8243C155.792 71.5087 156.551 68.5443 155.233 66.313L149.73 56.7561C149.095 55.6636 147.698 55.284 146.606 55.9186C145.513 56.5474 145.137 57.9471 145.768 59.0395L151.196 68.8515L128.874 81.7524C127.779 82.3842 127.408 83.7838 128.037 84.8763Z" fill="#2E1E72"/>
<path d="M59.2402 50.8012C60.1674 51.656 61.6134 51.5981 62.4683 50.6679C63.326 49.7377 63.2652 48.2917 62.3379 47.4368L54.6385 40.3459C53.7112 39.4911 52.2652 39.5461 51.4103 40.4792C50.5526 41.4065 50.6134 42.8554 51.5407 43.7103L59.2402 50.8012Z" fill="#2E1E72"/>
<path d="M38.0309 57.356C37.6716 58.5702 38.3642 59.8394 39.5755 60.1988C49.5758 63.1284 49.5381 63.2298 50.1466 63.2298C52.7662 63.2298 53.3139 59.4975 50.7928 58.7528L40.8708 55.8144C39.6769 55.4551 38.3903 56.1447 38.0309 57.356Z" fill="#2E1E72"/>
<path d="M175.413 61.6535C174.338 61.6332 179.305 61.7288 164.905 61.4478C163.662 61.4478 162.645 62.4417 162.619 63.6906C162.596 64.9512 163.599 65.9973 164.862 66.0205C165.937 66.0408 160.97 65.9451 175.369 66.2262C176.61 66.2262 177.627 65.2323 177.653 63.9833C177.676 62.7228 176.673 61.6767 175.413 61.6535Z" fill="#2E1E72"/>
<path d="M174.659 82.3495L165.462 77.6087C164.34 77.0291 162.964 77.4754 162.384 78.5939C161.808 79.7154 162.248 81.0947 163.37 81.6743L172.567 86.4151C173.68 86.9888 175.065 86.5571 175.645 85.4298C176.221 84.3084 175.781 82.929 174.659 82.3495Z" fill="#2E1E72"/>
</svg>
