<svg width="75" height="30" viewBox="0 0 75 30" fill="none" xmlns="http://www.w3.org/2000/svg">
<mask id="mask0_90_947" style="mask-type:luminance" maskUnits="userSpaceOnUse" x="0" y="19" width="75" height="11">
<path d="M0.929199 19.4185H74.0707V29.9788H0.929199V19.4185Z" fill="white"/>
</mask>
<g mask="url(#mask0_90_947)">
<path d="M74.0708 27.9175V29.9284H1.42871V27.9175C1.42871 26.0144 2.97316 24.4722 4.87623 24.4722C27.7812 19.1172 49.958 17.7114 70.6233 24.4722C72.5285 24.4722 74.0708 26.0144 74.0708 27.9175Z" fill="#2E1E72"/>
</g>
<path d="M71.0708 20.6123V24.021H5.0708V20.6123C5.0708 16.144 8.72814 12.523 13.2358 12.523H16.5155C31.2994 5.78658 45.7433 4.61095 59.6239 12.523H62.9036C67.4157 12.523 71.0708 16.144 71.0708 20.6123Z" fill="#8577B7"/>
<path d="M59.0708 13.021H16.0708C18.2077 9.13618 21.2831 5.88618 24.973 3.60911C28.663 1.32974 32.9721 0.0209961 37.5719 0.0209961C46.7716 0.0209961 54.8014 5.25366 59.0708 13.021Z" fill="#9D71FA"/>
</svg>
