<svg width="140" height="139" viewBox="0 0 140 139" fill="none" xmlns="http://www.w3.org/2000/svg">
<mask id="mask0_90_1345" style="mask-type:luminance" maskUnits="userSpaceOnUse" x="0" y="0" width="84" height="139">
<path d="M0.821289 0H83.8849V138.359H0.821289V0Z" fill="white"/>
</mask>
<g mask="url(#mask0_90_1345)">
<path d="M83.6941 85.9663V40.1354C83.6941 35.0055 79.5183 30.8317 74.3884 30.8317H51.4469V1.20666C51.4469 0.845819 51.2665 0.50703 50.9678 0.300548C50.6691 0.0960719 50.2862 0.0539736 49.9494 0.184277L1.57463 19.0342C1.15365 19.1986 0.875 19.6056 0.875 20.0566V137.262C0.875 137.623 1.05542 137.961 1.35412 138.168C1.53855 138.294 1.75505 138.358 1.97356 138.358C2.10787 138.358 2.24219 138.334 2.37049 138.284L50.7473 119.434C51.1682 119.27 51.4469 118.863 51.4469 118.412V116.229H69.517C70.1244 116.229 70.6136 115.736 70.6136 115.13V95.2599H74.3884C79.5203 95.2599 83.6941 91.0902 83.6941 85.9663ZM10.3451 86.9205C10.8743 87.1751 11.4356 87.3575 12.023 87.4577V95.7571C11.3995 95.5887 10.8322 95.276 10.3451 94.8389V86.9205ZM14.2181 87.7223C15.9882 88.2075 17.3013 89.8152 17.3013 91.7377C17.3013 93.6602 15.9882 95.2659 14.2181 95.7531V87.7223ZM12.023 85.2025C11.3995 85.0341 10.8322 84.7214 10.3451 84.2823V78.0939C10.8322 77.6549 11.3995 77.3421 12.023 77.1738V85.2025ZM10.3451 97.4751C10.8743 97.7317 11.4356 97.9121 12.023 98.0123V99.143C12.023 99.7484 12.5141 100.24 13.1215 100.24C13.727 100.24 14.2181 99.7484 14.2181 99.143V98.0103C17.2111 97.4891 19.4964 94.877 19.4964 91.7377C19.4964 88.5964 17.2111 85.9863 14.2181 85.4651V77.1778C15.9882 77.6649 17.3013 79.2706 17.3013 81.1931C17.3013 81.8005 17.7924 82.2917 18.3978 82.2917C19.0053 82.2917 19.4964 81.8005 19.4964 81.1931C19.4964 78.0538 17.2111 75.4417 14.2181 74.9205V73.7879C14.2181 73.1824 13.727 72.6913 13.1215 72.6913C12.5141 72.6913 12.023 73.1824 12.023 73.7879V74.9185C11.4356 75.0187 10.8743 75.1992 10.3451 75.4557V71.4023C11.2672 71.2339 12.1974 71.1236 13.1215 71.1236C21.5773 71.1236 28.4593 78.0037 28.4593 86.4614C28.4593 94.9251 21.5773 101.811 13.1215 101.811C12.1974 101.811 11.2672 101.699 10.3451 101.533V97.4751ZM10.3451 103.756C11.2692 103.904 12.1954 104.004 13.1215 104.004C22.7901 104.004 30.6524 96.134 30.6524 86.4614C30.6524 76.7929 22.7881 68.9265 13.1215 68.9265C12.1954 68.9265 11.2692 69.0288 10.3451 69.1771V63.3976H55.9394C56.4325 67.2165 59.4676 70.2496 63.2845 70.7448V102.188C61.4282 102.427 59.7081 103.265 58.359 104.616C57.0139 105.969 56.1779 107.687 55.9394 109.535H10.3451V103.756ZM81.4989 40.1354V43.1986H10.3451V33.0268H74.3884C78.3095 33.0268 81.4989 36.2163 81.4989 40.1354ZM49.2518 117.66L3.07012 135.656V20.8084L49.2518 2.8124V30.8317H45.3467V11.3904C45.3467 11.0235 45.1642 10.6828 44.8615 10.4783C44.5588 10.2738 44.1719 10.2337 43.8331 10.374L8.83355 24.6473C8.42059 24.8157 8.14996 25.2186 8.14996 25.6637V126.86C8.14996 127.224 8.33238 127.567 8.63509 127.77C8.81952 127.894 9.03201 127.956 9.24852 127.956C9.38885 127.956 9.52917 127.93 9.66148 127.876L38.2321 116.229H49.2518V117.66ZM68.4205 114.034H38.0336C38.0316 114.034 38.0316 114.034 38.0276 114.034H10.3451V111.728H56.9658C57.5712 111.728 58.0623 111.237 58.0623 110.632C58.0623 108.954 58.7198 107.366 59.9126 106.163C61.1074 104.969 62.6951 104.313 64.383 104.313C64.9884 104.313 65.4796 103.82 65.4796 103.214V69.7164C65.4796 69.111 64.9884 68.6198 64.383 68.6198C60.8969 68.6198 58.0623 65.7852 58.0623 62.2991C58.0623 61.6937 57.5712 61.2025 56.9658 61.2025H10.3451V58.8992H68.4205V114.034ZM70.6136 75.0829C73.7529 75.6061 76.1565 78.3305 76.1565 81.6101C76.1565 84.8978 73.7529 87.6261 70.6136 88.1493V75.0829ZM70.6136 90.3685C74.9677 89.8252 78.3516 86.1086 78.3516 81.6101C78.3516 77.1196 74.9677 73.407 70.6136 72.8657V57.8006C70.6136 57.1952 70.1244 56.704 69.517 56.704H10.3451V54.9379H81.4989V85.9663C81.4989 89.8814 78.3095 93.0648 74.3884 93.0648H70.6136V90.3685Z" fill="#2E1E72"/>
</g>
<path d="M125.366 104.345C125.366 104.211 125.334 104.083 125.288 103.961C125.28 103.938 125.274 103.916 125.264 103.894C125.214 103.784 125.146 103.684 125.061 103.596C125.045 103.576 125.025 103.562 125.007 103.544C124.977 103.515 124.949 103.483 124.915 103.457L111.869 93.9772C111.377 93.6204 110.692 93.7307 110.337 94.2198C109.98 94.7109 110.088 95.3965 110.58 95.7534L120.894 103.249H80.9725C80.3671 103.249 79.876 103.74 79.876 104.345C79.876 104.951 80.3671 105.442 80.9725 105.442H120.894L110.58 112.937C110.09 113.294 109.98 113.98 110.337 114.471C110.549 114.766 110.884 114.922 111.225 114.922C111.45 114.922 111.674 114.854 111.869 114.714L124.915 105.233C124.951 105.207 124.977 105.175 125.009 105.147C125.027 105.129 125.045 105.115 125.063 105.095C125.148 105.007 125.214 104.907 125.266 104.796C125.276 104.774 125.282 104.752 125.29 104.73C125.334 104.608 125.366 104.48 125.366 104.345Z" fill="#2E1E72"/>
<mask id="mask1_90_1345" style="mask-type:luminance" maskUnits="userSpaceOnUse" x="93" y="58" width="47" height="22">
<path d="M93.1221 58.4023H139.179V79.9566H93.1221V58.4023Z" fill="white"/>
</mask>
<g mask="url(#mask1_90_1345)">
<path d="M139.024 69.6867C139.034 69.6646 139.04 69.6426 139.048 69.6185C139.094 69.4962 139.124 69.3679 139.124 69.2356C139.124 69.1013 139.094 68.973 139.048 68.8507C139.038 68.8287 139.034 68.8066 139.024 68.7846C138.971 68.6723 138.903 68.5741 138.821 68.4839C138.803 68.4658 138.785 68.4498 138.767 68.4338C138.735 68.4057 138.709 68.3716 138.673 68.3476L125.626 58.8675C125.135 58.5106 124.45 58.6189 124.095 59.11C123.738 59.5992 123.848 60.2868 124.337 60.6416L134.651 68.1371H94.7323C94.1249 68.1371 93.6338 68.6282 93.6338 69.2356C93.6338 69.841 94.1249 70.3322 94.7323 70.3322H134.651L124.337 77.8277C123.848 78.1845 123.738 78.8701 124.095 79.3592C124.309 79.6559 124.644 79.8123 124.985 79.8123C125.207 79.8123 125.432 79.7441 125.628 79.6018L138.675 70.1217C138.709 70.0976 138.737 70.0635 138.767 70.0355C138.785 70.0174 138.805 70.0034 138.821 69.9854C138.903 69.8972 138.971 69.7949 139.024 69.6867Z" fill="#2E1E72"/>
</g>
<path d="M85.4384 30.1303H125.357L115.043 37.6258C114.554 37.9826 114.444 38.6682 114.801 39.1574C115.015 39.4541 115.348 39.6104 115.689 39.6104C115.913 39.6104 116.138 39.5423 116.332 39.3999L129.381 29.9198C129.415 29.8958 129.443 29.8617 129.473 29.8336C129.493 29.8176 129.511 29.8016 129.527 29.7835C129.611 29.6953 129.679 29.5931 129.73 29.4828C129.74 29.4608 129.746 29.4387 129.754 29.4167C129.8 29.2944 129.832 29.1661 129.832 29.0338C129.832 29.0338 129.832 29.0338 129.832 29.0318C129.832 28.8975 129.8 28.7712 129.756 28.6489C129.746 28.6248 129.74 28.6028 129.73 28.5807C129.681 28.4705 129.613 28.3722 129.529 28.282C129.511 28.262 129.493 28.248 129.473 28.2299C129.441 28.2018 129.415 28.1698 129.381 28.1457L116.334 18.6536C115.845 18.2968 115.158 18.405 114.803 18.8962C114.446 19.3853 114.554 20.0729 115.045 20.4277L125.363 27.9352H85.4384C84.8309 27.9352 84.3418 28.4264 84.3418 29.0318C84.3418 29.6372 84.8329 30.1303 85.4384 30.1303Z" fill="#2E1E72"/>
</svg>
